<svg width="180" height="34" viewBox="0 0 180 34" fill="none" xmlns="http://www.w3.org/2000/svg">
<path d="M55.8154 25V9.35938H60.2305C61.5911 9.35938 62.7943 9.66016 63.8398 10.2617C64.8854 10.8633 65.6911 11.7191 66.2568 12.8291C66.8298 13.9391 67.1198 15.2139 67.127 16.6533V17.6523C67.127 19.1276 66.8405 20.4202 66.2676 21.5303C65.7018 22.6403 64.889 23.4925 63.8291 24.0869C62.7764 24.6813 61.5482 24.9857 60.1445 25H55.8154ZM57.8779 11.0566V23.3135H60.0479C61.6377 23.3135 62.873 22.8193 63.7539 21.8311C64.6419 20.8428 65.0859 19.4355 65.0859 17.6094V16.6963C65.0859 14.9202 64.667 13.5417 63.8291 12.5605C62.9984 11.5723 61.8167 11.071 60.2842 11.0566H57.8779ZM75.5596 15.1602C75.2588 15.11 74.9329 15.085 74.582 15.085C73.2786 15.085 72.3942 15.64 71.9287 16.75V25H69.9414V13.377H71.875L71.9072 14.7197C72.5589 13.6813 73.4827 13.1621 74.6787 13.1621C75.0654 13.1621 75.359 13.2122 75.5596 13.3125V15.1602ZM82.0049 25.2148C80.4294 25.2148 79.1475 24.6992 78.1592 23.668C77.1709 22.6296 76.6768 21.2438 76.6768 19.5107V19.1455C76.6768 17.9925 76.8952 16.9648 77.332 16.0625C77.776 15.153 78.3919 14.444 79.1797 13.9355C79.9746 13.4199 80.834 13.1621 81.7578 13.1621C83.2689 13.1621 84.4434 13.6598 85.2812 14.6553C86.1191 15.6507 86.5381 17.0758 86.5381 18.9307V19.7578H78.6641C78.6927 20.9036 79.0257 21.8311 79.6631 22.54C80.3076 23.2419 81.124 23.5928 82.1123 23.5928C82.8141 23.5928 83.4085 23.4495 83.8955 23.1631C84.3825 22.8766 84.8086 22.4971 85.1738 22.0244L86.3877 22.9697C85.4137 24.4665 83.9528 25.2148 82.0049 25.2148ZM81.7578 14.7949C80.9557 14.7949 80.2826 15.0885 79.7383 15.6758C79.194 16.2559 78.8574 17.0723 78.7285 18.125H84.5508V17.9746C84.4935 16.9648 84.2214 16.1842 83.7344 15.6328C83.2474 15.0742 82.5885 14.7949 81.7578 14.7949ZM96.0234 25C95.9089 24.7708 95.8158 24.3626 95.7441 23.7754C94.8203 24.735 93.7174 25.2148 92.4355 25.2148C91.2897 25.2148 90.348 24.8926 89.6104 24.248C88.8799 23.5964 88.5146 22.7728 88.5146 21.7773C88.5146 20.5671 88.973 19.6289 89.8896 18.9629C90.8135 18.2897 92.1097 17.9531 93.7783 17.9531H95.7119V17.04C95.7119 16.3454 95.5042 15.7939 95.0889 15.3857C94.6735 14.9704 94.0612 14.7627 93.252 14.7627C92.543 14.7627 91.9486 14.9417 91.4688 15.2998C90.9889 15.6579 90.749 16.0911 90.749 16.5996H88.751C88.751 16.0195 88.9551 15.4609 89.3633 14.9238C89.7786 14.3796 90.3372 13.9499 91.0391 13.6348C91.748 13.3197 92.5251 13.1621 93.3701 13.1621C94.7093 13.1621 95.7585 13.4987 96.5176 14.1719C97.2767 14.8379 97.6706 15.7581 97.6992 16.9326V22.2822C97.6992 23.3493 97.8353 24.1979 98.1074 24.8281V25H96.0234ZM92.7256 23.4854C93.3486 23.4854 93.9395 23.3242 94.498 23.002C95.0566 22.6797 95.4613 22.2607 95.7119 21.7451V19.3604H94.1543C91.7194 19.3604 90.502 20.0729 90.502 21.498C90.502 22.1211 90.7096 22.6081 91.125 22.959C91.5404 23.3099 92.0739 23.4854 92.7256 23.4854ZM102.684 13.377L102.737 14.666C103.59 13.6634 104.739 13.1621 106.186 13.1621C107.811 13.1621 108.918 13.7852 109.505 15.0312C109.892 14.4727 110.393 14.0215 111.009 13.6777C111.632 13.334 112.366 13.1621 113.211 13.1621C115.76 13.1621 117.057 14.512 117.1 17.2119V25H115.112V17.3301C115.112 16.4993 114.923 15.8799 114.543 15.4717C114.163 15.0563 113.526 14.8486 112.631 14.8486C111.893 14.8486 111.281 15.0706 110.794 15.5146C110.307 15.9515 110.024 16.5423 109.945 17.2871V25H107.947V17.3838C107.947 15.6937 107.12 14.8486 105.466 14.8486C104.162 14.8486 103.271 15.4036 102.791 16.5137V25H100.804V13.377H102.684ZM121.977 13.377L122.03 14.666C122.882 13.6634 124.032 13.1621 125.479 13.1621C127.104 13.1621 128.211 13.7852 128.798 15.0312C129.185 14.4727 129.686 14.0215 130.302 13.6777C130.925 13.334 131.659 13.1621 132.504 13.1621C135.053 13.1621 136.35 14.512 136.393 17.2119V25H134.405V17.3301C134.405 16.4993 134.215 15.8799 133.836 15.4717C133.456 15.0563 132.819 14.8486 131.924 14.8486C131.186 14.8486 130.574 15.0706 130.087 15.5146C129.6 15.9515 129.317 16.5423 129.238 17.2871V25H127.24V17.3838C127.24 15.6937 126.413 14.8486 124.759 14.8486C123.455 14.8486 122.564 15.4036 122.084 16.5137V25H120.097V13.377H121.977ZM146.576 25C146.462 24.7708 146.368 24.3626 146.297 23.7754C145.373 24.735 144.27 25.2148 142.988 25.2148C141.842 25.2148 140.901 24.8926 140.163 24.248C139.433 23.5964 139.067 22.7728 139.067 21.7773C139.067 20.5671 139.526 19.6289 140.442 18.9629C141.366 18.2897 142.662 17.9531 144.331 17.9531H146.265V17.04C146.265 16.3454 146.057 15.7939 145.642 15.3857C145.226 14.9704 144.614 14.7627 143.805 14.7627C143.096 14.7627 142.501 14.9417 142.021 15.2998C141.542 15.6579 141.302 16.0911 141.302 16.5996H139.304C139.304 16.0195 139.508 15.4609 139.916 14.9238C140.331 14.3796 140.89 13.9499 141.592 13.6348C142.301 13.3197 143.078 13.1621 143.923 13.1621C145.262 13.1621 146.311 13.4987 147.07 14.1719C147.829 14.8379 148.223 15.7581 148.252 16.9326V22.2822C148.252 23.3493 148.388 24.1979 148.66 24.8281V25H146.576ZM143.278 23.4854C143.901 23.4854 144.492 23.3242 145.051 23.002C145.609 22.6797 146.014 22.2607 146.265 21.7451V19.3604H144.707C142.272 19.3604 141.055 20.0729 141.055 21.498C141.055 22.1211 141.262 22.6081 141.678 22.959C142.093 23.3099 142.627 23.4854 143.278 23.4854ZM154.611 19.6182L153.365 20.918V25H151.378V8.5H153.365V18.4795L154.429 17.2012L158.049 13.377H160.466L155.943 18.2324L160.992 25H158.661L154.611 19.6182ZM167.126 25.2148C165.55 25.2148 164.269 24.6992 163.28 23.668C162.292 22.6296 161.798 21.2438 161.798 19.5107V19.1455C161.798 17.9925 162.016 16.9648 162.453 16.0625C162.897 15.153 163.513 14.444 164.301 13.9355C165.096 13.4199 165.955 13.1621 166.879 13.1621C168.39 13.1621 169.564 13.6598 170.402 14.6553C171.24 15.6507 171.659 17.0758 171.659 18.9307V19.7578H163.785C163.814 20.9036 164.147 21.8311 164.784 22.54C165.429 23.2419 166.245 23.5928 167.233 23.5928C167.935 23.5928 168.53 23.4495 169.017 23.1631C169.504 22.8766 169.93 22.4971 170.295 22.0244L171.509 22.9697C170.535 24.4665 169.074 25.2148 167.126 25.2148ZM166.879 14.7949C166.077 14.7949 165.404 15.0885 164.859 15.6758C164.315 16.2559 163.979 17.0723 163.85 18.125H169.672V17.9746C169.615 16.9648 169.342 16.1842 168.855 15.6328C168.368 15.0742 167.71 14.7949 166.879 14.7949ZM179.587 15.1602C179.286 15.11 178.96 15.085 178.609 15.085C177.306 15.085 176.422 15.64 175.956 16.75V25H173.969V13.377H175.902L175.935 14.7197C176.586 13.6813 177.51 13.1621 178.706 13.1621C179.093 13.1621 179.386 13.2122 179.587 13.3125V15.1602Z" fill="white"/>
<g filter="url(#filter0_d)">
<path d="M4.20117 8.4043C8.15299 8.11133 10.7311 7.96484 11.9355 7.96484C13.1465 7.96484 14.1003 8.07878 14.7969 8.30664C15.5 8.52799 16.1283 8.83724 16.6816 9.23438C17.7559 9.99609 18.5664 11.0085 19.1133 12.2715C19.6667 13.5345 19.9434 14.8138 19.9434 16.1094C19.9434 17.4049 19.7318 18.5378 19.3086 19.5078C18.8919 20.4714 18.3125 21.2852 17.5703 21.9492C16.0534 23.3229 14.0905 24.0065 11.6816 24H4.20117V8.4043ZM10.2754 13.3555V19.3027C10.6204 19.0098 10.9948 18.7201 11.3984 18.4336C12.9479 17.3203 13.7227 16.1549 13.7227 14.9375C13.7227 14.3451 13.5469 13.7982 13.1953 13.2969C12.8438 12.7891 12.3848 12.5352 11.8184 12.5352C11.2585 12.5352 10.7441 12.8086 10.2754 13.3555ZM27.1211 8.4043L28.9082 13.9609L32.8047 8.73633C32.9349 8.56055 33.0326 8.44661 33.0977 8.39453C33.1628 8.34245 33.2604 8.31641 33.3906 8.31641C33.5208 8.31641 33.6868 8.45638 33.8887 8.73633L37.5215 13.9023L39.2793 8.4043H44.8652L39.7676 23.5996C39.5462 24.2507 39.1719 24.5762 38.6445 24.5762C38.1172 24.5762 37.6452 24.2767 37.2285 23.6777L32.8633 17.3789L28.166 23.6973C27.7428 24.2572 27.2708 24.5371 26.75 24.5371C26.2292 24.5371 25.8483 24.2116 25.6074 23.5605L20.1191 8.4043H27.1211Z" fill="white"/>
</g>
<defs>
<filter id="filter0_d" x="0.201172" y="3.96484" width="52.6641" height="28.6113" filterUnits="userSpaceOnUse" color-interpolation-filters="sRGB">
<feFlood flood-opacity="0" result="BackgroundImageFix"/>
<feColorMatrix in="SourceAlpha" type="matrix" values="0 0 0 0 0 0 0 0 0 0 0 0 0 0 0 0 0 0 127 0"/>
<feOffset dx="2" dy="2"/>
<feGaussianBlur stdDeviation="3"/>
<feColorMatrix type="matrix" values="0 0 0 0 0 0 0 0 0 0 0 0 0 0 0 0 0 0 0.25 0"/>
<feBlend mode="normal" in2="BackgroundImageFix" result="effect1_dropShadow"/>
<feBlend mode="normal" in="SourceGraphic" in2="effect1_dropShadow" result="shape"/>
</filter>
</defs>
</svg>
