<svg width="72" height="72" viewBox="0 0 72 72" fill="none" xmlns="http://www.w3.org/2000/svg">
<circle cx="36" cy="36" r="36" fill="#C8C8C8"/>
<g filter="url(#filter0_d)">
<path d="M16.2012 27.4043C20.153 27.1113 22.7311 26.9648 23.9355 26.9648C25.1465 26.9648 26.1003 27.0788 26.7969 27.3066C27.5 27.528 28.1283 27.8372 28.6816 28.2344C29.7559 28.9961 30.5664 30.0085 31.1133 31.2715C31.6667 32.5345 31.9434 33.8138 31.9434 35.1094C31.9434 36.4049 31.7318 37.5378 31.3086 38.5078C30.8919 39.4714 30.3125 40.2852 29.5703 40.9492C28.0534 42.3229 26.0905 43.0065 23.6816 43H16.2012V27.4043ZM22.2754 32.3555V38.3027C22.6204 38.0098 22.9948 37.7201 23.3984 37.4336C24.9479 36.3203 25.7227 35.1549 25.7227 33.9375C25.7227 33.3451 25.5469 32.7982 25.1953 32.2969C24.8438 31.7891 24.3848 31.5352 23.8184 31.5352C23.2585 31.5352 22.7441 31.8086 22.2754 32.3555ZM39.1211 27.4043L40.9082 32.9609L44.8047 27.7363C44.9349 27.5605 45.0326 27.4466 45.0977 27.3945C45.1628 27.3424 45.2604 27.3164 45.3906 27.3164C45.5208 27.3164 45.6868 27.4564 45.8887 27.7363L49.5215 32.9023L51.2793 27.4043H56.8652L51.7676 42.5996C51.5462 43.2507 51.1719 43.5762 50.6445 43.5762C50.1172 43.5762 49.6452 43.2767 49.2285 42.6777L44.8633 36.3789L40.166 42.6973C39.7428 43.2572 39.2708 43.5371 38.75 43.5371C38.2292 43.5371 37.8483 43.2116 37.6074 42.5605L32.1191 27.4043H39.1211Z" fill="white"/>
</g>
<defs>
<filter id="filter0_d" x="12.2012" y="22.9648" width="52.6641" height="28.6113" filterUnits="userSpaceOnUse" color-interpolation-filters="sRGB">
<feFlood flood-opacity="0" result="BackgroundImageFix"/>
<feColorMatrix in="SourceAlpha" type="matrix" values="0 0 0 0 0 0 0 0 0 0 0 0 0 0 0 0 0 0 127 0"/>
<feOffset dx="2" dy="2"/>
<feGaussianBlur stdDeviation="3"/>
<feColorMatrix type="matrix" values="0 0 0 0 0 0 0 0 0 0 0 0 0 0 0 0 0 0 0.25 0"/>
<feBlend mode="normal" in2="BackgroundImageFix" result="effect1_dropShadow"/>
<feBlend mode="normal" in="SourceGraphic" in2="effect1_dropShadow" result="shape"/>
</filter>
</defs>
</svg>
